<?xml version="1.0" encoding="UTF-8"?>
<svg id="_Слой_1" data-name="Слой 1" xmlns="http://www.w3.org/2000/svg" viewBox="0 0 100 50">
  <defs><style>.cls-1{fill:#1d1d1b;}</style></defs>
  <g>
    <path class="cls-1" d="m27.75,16.43c-.44,0-.79.35-.83.78-.08.78-.42,1.54-1.01,2.13-.93.93-2.25,1.23-3.43.91-.5-.14-.67-.78-.3-1.15l.59-.59,3.59-3.59.57-.57c.28-.28.28-.74,0-1.02h0c-2.08-2.08-5.54-1.94-7.43.42-1.44,1.79-1.44,4.41,0,6.2,1.89,2.36,5.35,2.5,7.43.42.92-.92,1.4-2.1,1.45-3.3.01-.35-.28-.64-.63-.64h0Zm-6.84-2.08c1.2-1.2,3.06-1.35,4.43-.46l-4.89,4.89c-.89-1.37-.74-3.22.46-4.43Z"/>
    <path class="cls-1" d="m50.4,11.86c-.4,0-.73.33-.73.73v.74c-.9-.91-2.15-1.47-3.53-1.47-2.75,0-4.99,2.23-4.99,4.99s2.23,4.99,4.99,4.99c1.38,0,2.63-.56,3.53-1.47v.74c0,.4.33.73.73.73s.73-.33.73-.73v-8.52c0-.4-.33-.73-.73-.73Zm-4.26,8.38c-1.87,0-3.39-1.52-3.39-3.39s1.52-3.39,3.39-3.39,3.39,1.52,3.39,3.39-1.52,3.39-3.39,3.39Z"/>
    <path class="cls-1" d="m61.77,11.86h-8.47c-.38,0-.73.27-.77.65-.04.44.3.8.72.8h2.79c.41,0,.74.33.74.74v7c0,.38.27.73.65.77.44.04.8-.3.8-.72v-7.05c0-.41.33-.74.74-.74h2.75c.38,0,.73-.27.77-.65.04-.44-.3-.8-.72-.8Z"/>
    <path class="cls-1" d="m71.97,11.86c-.4,0-.73.33-.73.73v.74c-.9-.91-2.15-1.47-3.53-1.47-2.75,0-4.99,2.23-4.99,4.99s2.23,4.99,4.99,4.99c1.38,0,2.63-.56,3.53-1.47v.74c0,.4.33.73.73.73s.73-.33.73-.73v-8.52c0-.4-.33-.73-.73-.73Zm-4.26,8.38c-1.87,0-3.39-1.52-3.39-3.39s1.52-3.39,3.39-3.39,3.39,1.52,3.39,3.39-1.52,3.39-3.39,3.39Z"/>
    <path class="cls-1" d="m83.46,16.43c-.44,0-.79.35-.83.78-.08.78-.42,1.54-1.01,2.13-.93.93-2.25,1.23-3.43.91-.5-.14-.67-.78-.3-1.15l.59-.59,3.59-3.59.57-.57c.28-.28.28-.74,0-1.02h0c-2.08-2.08-5.54-1.94-7.43.42-1.44,1.79-1.44,4.41,0,6.2,1.89,2.36,5.35,2.5,7.43.42.92-.92,1.4-2.1,1.45-3.3.01-.35-.28-.64-.63-.64h0Zm-6.84-2.08c1.2-1.2,3.06-1.35,4.43-.46l-4.89,4.89c-.89-1.37-.74-3.22.46-4.43Z"/>
    <path class="cls-1" d="m93.34,11.86h-8.47c-.38,0-.73.27-.77.65-.04.44.3.8.72.8h2.79c.41,0,.74.33.74.74v7c0,.38.27.73.65.77.44.04.8-.3.8-.72v-7.05c0-.41.33-.74.74-.74h2.75c.38,0,.73-.27.77-.65.04-.44-.3-.8-.72-.8Z"/>
    <path class="cls-1" d="m30.78,12.59c0-.4-.33-.73-.73-.73h0c-.4,0-.73.33-.73.73v2.35c0,2.75,2.23,4.99,4.99,4.99,1.38,0,2.63-.56,3.53-1.47v2.64c0,.4.33.73.73.73s.73-.33.73-.73v-8.52c0-.4-.33-.73-.73-.73s-.73.33-.73.73v2.36c0,1.94-1.59,3.53-3.53,3.53s-3.53-1.58-3.53-3.53v-2.35Z"/>
    <path class="cls-1" d="m11.99,13.31c1.95,0,3.53,1.58,3.53,3.53v4.26c0,.4.33.73.73.73h0c.4,0,.73-.33.73-.73v-4.26c0-2.75-2.23-4.99-4.99-4.99h0c-2.75,0-4.99,2.23-4.99,4.99v4.26c0,.4.33.73.73.73h0c.4,0,.73-.33.73-.73v-4.26c0-1.95,1.58-3.53,3.53-3.53"/>
  </g>
  <g>
    <path class="cls-1" d="m47.67,28.17c-.4,0-.73.33-.73.73v.74c-.9-.91-2.15-1.47-3.53-1.47-2.75,0-4.99,2.23-4.99,4.99s2.23,4.99,4.99,4.99c1.38,0,2.63-.56,3.53-1.47v.74c0,.4.33.73.73.73s.73-.33.73-.73v-8.52c0-.4-.33-.73-.73-.73Zm-4.26,8.38c-1.87,0-3.39-1.52-3.39-3.39s1.52-3.39,3.39-3.39,3.39,1.52,3.39,3.39-1.52,3.39-3.39,3.39Z"/>
    <path class="cls-1" d="m59.68,37l-2.11-3.44c-.17-.25-.17-.57,0-.82l2.11-3.44c.23-.33.14-.78-.19-1.01h0c-.33-.23-.78-.14-1.01.19l-2.46,3.94h-4.71v-3.53c0-.4-.33-.73-.73-.73s-.73.33-.73.73v8.52c0,.4.33.73.73.73s.73-.33.73-.73v-3.53h4.71l2.46,3.94c.23.33.68.42,1.01.19.33-.23.42-.68.19-1.01Z"/>
    <path class="cls-1" d="m68.3,33.46c-.13,1.47-1.22,2.78-2.85,3.05-1.36.22-2.75-.43-3.44-1.62-1.1-1.89-.18-4.22,1.78-4.92,1.29-.46,2.67-.09,3.57.83.22.22.53.31.82.2h.02c.54-.2.71-.89.31-1.3-1.42-1.47-3.68-1.99-5.7-1.06-2.23,1.03-3.38,3.62-2.66,5.97.84,2.74,3.78,4.2,6.45,3.25,1.9-.68,3.13-2.39,3.29-4.27.05-.58-.52-1.02-1.07-.82h0c-.3.11-.5.38-.52.7Z"/>
    <path class="cls-1" d="m81.33,30.91v-2.01c0-.4-.33-.73-.73-.73h0c-.4,0-.73.33-.73.73v4.13c0,1.88-1.41,3.52-3.29,3.65-2.06.14-3.77-1.5-3.77-3.52v-4.26c0-.4-.33-.73-.73-.73h0c-.4,0-.73.33-.73.73v4.13c0,2.64,2,4.93,4.64,5.11,1.52.1,2.9-.47,3.88-1.45v.74c0,.4.33.73.73.73h0c.4,0,.73-.33.73-.73v-6.5h0Z"/>
    <path class="cls-1" d="m36.25,28.17h0c-.24,0-.46.12-.59.3-.04.01-3.35,4.76-3.35,4.76-.15.22-.47.22-.62,0,0,0-3.36-4.81-3.41-4.82-.13-.15-.32-.24-.54-.24-.4,0-.73.33-.73.73v8.52c0,.4.33.73.73.73s.73-.33.73-.73v-6.29l3,4.34c.12.17.33.25.55.23.21.01.41-.06.52-.23l2.99-4.32v6.27c0,.4.33.73.73.73h0c.4,0,.73-.33.73-.73v-8.52c0-.4-.33-.73-.73-.73Z"/>
    <path class="cls-1" d="m92.02,28.17h0c-.24,0-.46.12-.59.3-.04.01-3.35,4.76-3.35,4.76-.15.22-.47.22-.62,0,0,0-3.36-4.81-3.41-4.82-.13-.15-.32-.24-.54-.24-.4,0-.73.33-.73.73v8.52c0,.4.33.73.73.73s.73-.33.73-.73v-6.29l3,4.34c.12.17.33.25.55.23.21.01.41-.06.52-.23l2.99-4.32v6.27c0,.4.33.73.73.73h0c.4,0,.73-.33.73-.73v-8.52c0-.4-.33-.73-.73-.73Z"/>
  </g>
  <g>
    <circle class="cls-1" cx="15.01" cy="33.15" r="1.97"/>
    <circle class="cls-1" cx="10.34" cy="33.15" r="1.22"/>
    <path class="cls-1" d="m21.63,29.96c-1.76,0-3.19,1.43-3.19,3.19s1.43,3.19,3.19,3.19,3.19-1.43,3.19-3.19-1.43-3.19-3.19-3.19Zm0,4.41c-.67,0-1.22-.55-1.22-1.22s.55-1.22,1.22-1.22,1.22.55,1.22,1.22-.55,1.22-1.22,1.22Z"/>
  </g>
</svg>